Patient4_TMGait_0pt4_01_right_23_EMG.mot
version=1
nRows=30
nColumns=33
inDegrees=no
endheader
time	1LAddLong	2LGlutMax	3LGlutMed	4LIliopsoas	5LSemiMemb	6LBicFemLong	7LRecFem	8LVastMed	9LVastLat	10LGasMed	11LTibAnt	12lTibPost	13LPeroneusLong	14LSol	15LExtDigLong	16LFlexDigLong	17RAddLong	18RGlutMax	19RGlutMed	20RIliopsoas	21RSemiMemb	22RBicFemLong	23RRecFem	24RVastMed	25RVastLat	26RGasMed	27RTibAnt	28RTibPost	29RPeroneusLong	30RSol	31RExtDigLong	32RFlexDigLong
30.02	-0.012512	0.052032	0.016785	-0.008698	-0.004578	-0.010376	-0.11444	0.004578	-0.043793	0.15625	-0.003357	0.028687	-0.066528	0.25635	0.045929	0.003662	-0.011902	-0.76324	-0.23529	0.014496	0.36896	-0.54993	0.16113	0.00473	0.096588	-0.017853	-0.11917	-0.31281	0.27802	-0.082092	-0.007782	-0.00946
30.021	-0.008087	0.031738	0.012817	-0.003662	-0.005188	-0.007935	-0.11368	0.011597	-0.048065	0.016937	-0.000153	0.016632	0.000305	0.20248	0.04303	0.009613	-0.03067	-0.74554	-0.072784	0.026093	0.12741	-0.63614	0.1236	-0.021515	-0.028229	0.001526	0.057068	0.1355	0.17395	-0.037689	-0.001526	-0.010071
30.022	-0.010681	0.028381	0.018158	0.00824	-0.029144	-0.023193	-0.10468	0.013885	-0.043488	-0.31769	-0.010986	0.032501	0.054626	0.16876	0.040894	0.023041	-0.065765	-0.77667	0.045471	0.015259	-0.016479	-0.31464	0.012207	0.014648	-0.37888	0.012512	0.036316	0.18784	1.0768	-0.04364	-0.002441	-0.008545
30.023	-0.00412	0.019684	0.019226	-0.009308	0.005035	-0.005951	-0.10483	0.008087	-0.048523	-0.22751	-0.007782	0.028687	0.011597	0.3157	0.027313	0.057831	-0.050354	-0.96176	0.19211	0.014343	-0.26321	-0.13245	0.042114	-0.032196	-0.38589	0.007172	0.14786	0.045013	0.28702	-0.020142	-0.002441	-0.006561
30.024	-0.010834	0.002747	0.014038	0.003052	-0.000763	-0.02121	-0.10742	0.002136	-0.040894	-0.041656	0.007477	0.069733	-0.050964	0.44998	0.010376	-0.025024	-0.050049	-1.1508	0.22446	0.02594	-0.63004	-0.097961	0.010223	-0.018463	-0.21439	0.019379	0.15381	0.014801	-0.2066	-0.044861	-0.002289	-0.005951
30.025	-0.010376	-0.013275	0.017395	-0.000916	-0.001068	-0.028687	-0.10498	0.012817	-0.039215	0.16617	0.014343	0.34714	-0.1944	0.25482	-0.014801	-0.062866	-0.054321	-1.1963	-0.12421	0.048065	-0.49805	-0.20325	0.12177	-0.051727	-0.14862	0.011749	0.13153	0.003052	-0.31006	-0.015106	-0.000916	-0.007477
30.026	-0.007477	-0.009308	-0.003662	-0.00824	0.001984	-0.014038	-0.092926	0.011902	-0.035095	0.20828	0.018768	-0.06073	-0.42847	-0.051422	-0.017853	-0.2829	-0.032654	-1.2593	-0.5336	0.000458	-0.012207	-0.40131	0.066833	-0.11078	-0.14069	0.010681	-0.096893	0.00061	-1.0561	-0.18936	0.001984	-0.001221
30.027	-0.013123	-0.019379	-0.010376	0.002747	-0.003357	-0.02243	-0.121	0.006866	-0.040894	0.092316	0.002136	-0.019226	-0.65689	-0.11093	0.003357	0.44586	-0.011902	-1.2952	-0.55115	0.033722	0.383	-0.21362	0.078888	-0.099792	-0.11856	0.021515	-0.14511	-0.008392	-1.3359	-0.13184	-0.003662	0.002594
30.028	-0.010986	-0.02182	0.015717	-0.008087	-0.000763	-0.024567	-0.12802	0.010223	-0.045319	-0.041809	-0.010223	-0.061951	-0.32211	0.30334	0.014038	0.14572	0.009918	-1.4211	-0.57953	0.035706	0.29785	-0.17349	0.064545	0.050354	0.060425	0.023346	-0.097351	-0.008392	0.98267	-0.006714	-0.002594	-0.001221
30.029	0.000458	-0.032654	0.020294	-0.013428	0.005188	-0.018616	-0.1181	0.010834	-0.039063	0.04364	-0.013428	-0.042114	-0.083771	0.40268	-0.026245	-0.00946	-0.06073	-1.4157	-0.39444	0.083771	0.15488	0.007782	0.2034	0.088959	0.02594	0.027924	-0.066376	-0.018158	0.66055	0.068512	-0.007782	-0.005341
30.03	-0.007629	-0.044708	0.007324	0.015411	0.001526	-0.00824	-0.112	0.006256	-0.026703	0.079041	0	0.045929	-0.06958	0.14297	-0.041656	-0.02533	-0.081787	-1.3304	-0.48141	0.046997	-0.059204	-0.051117	0.35873	-0.000153	-0.13672	0.036011	0.061646	-0.020294	-0.28076	0.21194	-0.005493	-0.006409
30.031	-0.009918	-0.037994	0.00885	0.016785	0.001984	-0.006866	-0.11246	0.005646	-0.00946	0.040741	-0.005646	0.064392	0.072479	-0.39795	0.029144	-0.038605	-0.056152	-1.2599	-0.4007	0.001984	0.065155	-0.075989	0.30426	0.11337	-0.21729	-0.002441	0.053253	-0.023193	-0.78354	0.17136	-0.001221	-0.013733
30.032	-0.002136	-0.049744	0.021057	0.00946	0.001678	-0.011902	-0.090942	0.00412	-0.008545	0.020294	-0.009308	-0.016632	0.27466	-0.85999	0.050049	-0.018616	-0.020294	-1.1189	-0.088654	-0.040436	0.20508	-0.16541	0.18951	0.18356	-0.17242	-0.066986	0.033112	-0.03891	-0.33768	0.30655	-0.003052	-0.00885
30.033	-0.001831	-0.040894	0.027161	0.003967	0.003815	-0.009918	-0.087891	0.016174	-0.005646	0.038147	0.001373	-0.025024	0.21454	-0.9256	0.018616	0.054169	0.005035	-1.0408	-0.23911	-0.047913	0.11124	-0.2005	0.099335	0.13321	-0.10254	0.009308	0.034485	-0.045776	0.10544	0.39047	-0.001373	-0.004578
30.034	-0.005493	-0.020142	0.029449	-0.022278	-0.002594	-0.008392	-0.08606	0.01358	-0.034637	0.054321	0.001221	0.005035	0.082855	-0.92682	-0.02121	0.009766	-0.002289	-0.88104	-0.6366	-0.040741	0.028992	-0.16571	0.15182	0.077515	-0.024719	0.0354	-0.040436	-0.035553	0.20157	0.4097	-0.00061	-0.011292
30.035	-0.001068	0.001984	0.028381	-0.018616	-0.00061	0.018005	-0.071869	0.012665	-0.031281	0.014343	0.003967	0.005188	0.032501	-0.3363	-0.018768	0.050354	0.01297	-0.66971	-0.67749	-0.093384	0.062561	-0.19043	0.20599	0.062103	0.06134	-0.004883	-0.006866	-0.063782	0.16556	0.050507	-0.003967	-0.017548
30.036	-0.004578	0.014496	0.0383	-0.003204	-0.003662	-0.018158	-0.069122	0.014954	-0.028992	0.017548	-0.001831	0.010223	0.03418	0.094299	-0.028076	-0.27283	0.057526	-0.53619	0.10544	-0.20859	0.22995	-0.14343	0.38467	0.1207	0.21225	-0.043182	-0.0177	-0.16357	0.016022	-0.64804	-0.005493	-0.016479
30.037	-0.002289	-0.012665	0.036926	-0.011597	-0.005188	-0.023193	-0.034332	0.009918	-0.029907	0.008698	0.005188	0.010986	-0.021973	0.40649	-0.001068	0.11353	0.079041	-0.53696	0.47394	-0.20615	0.25757	-0.036774	0.35599	0.11398	0.10407	-0.038757	0.029144	0.009613	-0.029449	-1.0898	-0.003967	-0.012665
30.038	-0.001678	0.022125	0.046844	-0.00351	0.001678	-0.019073	-0.028534	0.005951	-0.048065	0.009308	-0.005341	0.005493	-0.049438	0.54764	0.030975	0.060577	-0.003052	-0.51209	1.3583	-0.11719	0.042572	-0.023804	0.26657	0.068512	0.006409	-0.09552	0.055084	-0.034027	0.063934	-0.32669	-0.002289	-0.017853
30.039	-0.010834	0.022736	0.048065	-0.007019	-0.012512	0.000305	-0.015717	0.014191	-0.040436	0.010834	0.006409	0.012817	-0.045013	0.40802	0.020905	0.009003	-0.11597	-0.42877	1.0507	0.22705	-0.43503	-0.16968	0.18967	0.10849	0.028381	-0.072632	-0.007172	-0.056458	-0.66467	-0.17319	-0.008545	-0.014496
30.04	-0.006561	0.031738	0.051117	0.007324	0.000763	-0.007019	-0.003052	0.013428	-0.044556	0.00824	-0.003052	0.028992	-0.019379	0.17654	0.003052	-0.003204	-0.13031	-0.32944	0.27588	0.35736	-0.56549	-0.28076	-0.066833	0.001831	-0.033264	-0.034485	-0.045013	0.11719	-0.31082	-0.27115	-0.00412	-0.018768
30.041	-0.007019	0.051117	0.023651	-0.011292	-0.006561	-0.011902	-0.010223	0.012665	-0.041504	-0.00885	-0.001984	0.01236	0.046539	0.079803	0.008698	-0.014648	-0.07843	-0.43793	-0.02121	0.2623	-0.083618	-0.48523	-0.32867	-0.028992	0.061035	0.048065	-0.016327	0.26337	0.099335	0.10895	-0.005493	-0.009308
30.042	-0.008545	0.021667	0.01358	-0.000305	0.000153	-0.021515	0.020447	0.003967	-0.033264	-0.003052	-0.00061	0.018005	0.025787	0.14954	0.021667	-0.028381	-0.045013	-0.69061	-0.78445	0.070648	0.04715	-0.52719	-0.33371	0.007477	0.13962	0.063782	0.003815	0.12726	0.018005	0.25223	-0.007782	0.000763
30.043	-0.010376	0.011749	0.017548	-0.007477	0.003815	-0.026703	0.025787	0.001373	-0.034027	0.002747	-0.000458	0.007629	-0.001373	0.21927	0.017548	-0.026245	-0.022583	-0.93292	-1.6954	0.084076	0.060272	-0.6192	-0.00946	0.009918	0.12528	0.048828	0.001373	0.089722	0.36331	0.26504	-0.001221	0.010681
30.044	-0.01236	0.068359	-0.007629	0.000305	-0.01236	-0.012665	0.055542	0.006714	-0.016174	0.004883	-0.002594	0.020752	-0.016785	0.16556	0.00412	-0.014801	0.001984	-0.98099	-1.2474	0.072174	0.027618	-0.59616	0.1503	0.052948	0.081787	0.046234	0.068665	0.0177	1.2955	0.14221	-0.003052	0.015411
30.045	-0.018768	0.068207	-0.009766	0.007935	0.003815	-0.013428	0.069427	-0.000458	-0.009918	0.018921	-0.000458	0.017548	-0.033417	0.092316	0.00061	-0.008392	0.038757	-0.82962	-0.51651	0.19959	-0.023041	-0.29266	0.20889	0.09964	0.053406	0.021057	0.17914	0.001068	0.65674	0.26123	-0.00473	0.011139
30.046	-0.001678	0.097504	-0.010223	-0.007782	0.000153	-0.013885	0.078278	0.006561	-0.011139	0.020447	0.004883	0.016022	-0.044098	0.072479	-0.007935	-0.006866	0.074158	-0.63568	-0.54947	0.19455	-0.15167	-0.097046	0.19501	0.059357	0.027161	0.032654	0.088196	0.000305	-0.62622	0.17685	-0.005035	0.001984
30.047	-0.011292	0.083923	-0.015564	-0.007019	0.00061	-0.008545	0.086975	0.001678	-0.006714	0.023956	-0.001526	0.025177	-0.02655	0.075378	-0.003204	-0.003662	0.037842	-0.44922	-0.51773	0.054626	-0.071411	0.055542	0.17303	0.032043	-0.014038	0.059357	-0.16251	-0.010529	-1.3634	-0.19745	-0.006866	-0.003052
30.048	-0.01709	0.066528	-0.015564	0	-0.001526	-0.000458	0.093231	0.012512	-0.001221	0.014496	-0.007629	0.031891	-0.018311	0.063934	-0.007324	-0.023346	-0.035706	-0.46799	0.083466	-0.049286	-0.16357	0.092468	0.023956	0.21866	0.03891	0.054474	-0.04837	-0.008698	0.030212	-0.027008	-0.003357	-0.014648
30.049	-0.012512	0.1149	-0.003967	0.007172	-0.003967	-0.02182	0.080414	-0.00061	0.002136	0.019073	-0.00412	0.014954	-0.031128	0.078125	-0.003815	-0.005341	-0.051117	-0.36529	0.14465	-0.10101	0.025482	-0.082092	-0.10742	0.16434	0.056458	0.039825	0.003204	-0.016327	0.28595	-0.24048	-0.00412	-0.011749
